<?xml version="1.0" standalone="no"?>
<!DOCTYPE svg PUBLIC "-//W3C//DTD SVG 20010904//EN"
 "http://www.w3.org/TR/2001/REC-SVG-20010904/DTD/svg10.dtd">
<svg version="1.0" xmlns="http://www.w3.org/2000/svg"
 width="1280.000000pt" height="1100.000000pt" viewBox="0 0 1280.000000 1100.000000"
 preserveAspectRatio="xMidYMid meet">
<g transform="translate(0.000000,1100.000000) scale(0.100000,-0.100000)"
fill="#000000" stroke="none">
<path d="M9780 10984 c-135 -29 -156 -44 -1190 -864 -774 -614 -987 -778 -995
-767 -5 7 -223 281 -482 609 -369 465 -481 600 -510 614 -26 13 -60 19 -105
19 -58 0 -72 -4 -110 -31 -53 -37 -1810 -1430 -1928 -1528 -225 -187 -473
-447 -647 -677 -450 -594 -714 -1247 -819 -2024 -24 -176 -30 -684 -10 -882
47 -469 161 -901 351 -1322 39 -87 44 -107 33 -115 -203 -153 -3070 -2439
-3111 -2481 -109 -111 -186 -248 -229 -406 -19 -70 -22 -108 -22 -229 1 -127
4 -156 28 -234 63 -209 192 -391 358 -504 73 -50 204 -109 293 -133 98 -27
317 -32 405 -10 124 30 232 76 316 133 28 19 736 578 1572 1241 837 664 1525
1207 1530 1207 5 0 52 -33 106 -74 531 -408 1184 -687 1862 -796 383 -62 857
-65 1243 -9 686 100 1335 367 1887 776 183 136 1932 1527 1966 1564 23 25 40
57 48 89 24 101 30 92 -495 753 -261 329 -475 602 -475 606 0 4 441 357 979
784 538 427 1000 800 1025 829 252 289 158 758 -186 927 -186 92 -362 92 -543
1 -63 -31 -289 -207 -1055 -815 l-975 -774 -21 22 c-68 70 -1515 1910 -1508
1916 5 5 434 344 954 756 541 428 977 780 1020 824 120 122 170 245 170 416 0
173 -51 296 -175 420 -91 92 -165 136 -281 165 -89 23 -181 24 -274 4z"/>
</g>
</svg>
